<svg xmlns="http://www.w3.org/2000/svg" viewBox="0 0 720 480" font-family="Georgia, 'Times New Roman', serif">
  <rect width="720" height="480" fill="#fafafa"/>
  <defs>
    <marker id="arrowP" viewBox="0 0 10 10" refX="9" refY="5" markerWidth="7" markerHeight="7" orient="auto">
      <path d="M0,0 L10,5 L0,10 z" fill="#dd6b20"/>
    </marker>
    <marker id="arrowC" viewBox="0 0 10 10" refX="9" refY="5" markerWidth="7" markerHeight="7" orient="auto">
      <path d="M0,0 L10,5 L0,10 z" fill="#2b6cb0"/>
    </marker>
  </defs>

  <!-- axes -->
  <line x1="60" y1="240" x2="660" y2="240" stroke="#cbd5e0" stroke-width="1"/>
  <line x1="360" y1="44" x2="360" y2="424" stroke="#cbd5e0" stroke-width="1"/>
  <text x="650" y="234" fill="#718096" font-size="12" font-style="italic">x</text>
  <text x="367" y="52" fill="#718096" font-size="12" font-style="italic">y</text>

  <!-- spiral -->
  <path d="M 366.00,240.00 L 366.02,239.89 L 366.03,239.79 L 366.05,239.68 L 366.06,239.58 L 366.07,239.47 L 366.08,239.36 L 366.09,239.25 L 366.09,239.14 L 366.10,239.03 L 366.10,238.92 L 366.10,238.81 L 366.09,238.70 L 366.09,238.59 L 366.08,238.48 L 366.08,238.37 L 366.06,238.26 L 366.05,238.15 L 366.04,238.04 L 366.02,237.92 L 366.00,237.81 L 365.98,237.70 L 365.96,237.59 L 365.94,237.48 L 365.91,237.37 L 365.88,237.25 L 365.85,237.14 L 365.82,237.03 L 365.78,236.92 L 365.75,236.81 L 365.71,236.70 L 365.67,236.59 L 365.62,236.48 L 365.58,236.37 L 365.53,236.26 L 365.48,236.15 L 365.43,236.05 L 365.38,235.94 L 365.33,235.83 L 365.27,235.73 L 365.21,235.62 L 365.15,235.52 L 365.08,235.41 L 365.02,235.31 L 364.95,235.21 L 364.88,235.11 L 364.81,235.01 L 364.74,234.91 L 364.66,234.81 L 364.59,234.71 L 364.51,234.62 L 364.43,234.52 L 364.34,234.43 L 364.26,234.33 L 364.17,234.24 L 364.09,234.15 L 363.99,234.06 L 363.90,233.98 L 363.81,233.89 L 363.71,233.80 L 363.62,233.72 L 363.52,233.64 L 363.42,233.56 L 363.31,233.48 L 363.21,233.40 L 363.10,233.32 L 362.99,233.25 L 362.89,233.18 L 362.77,233.11 L 362.66,233.04 L 362.55,232.97 L 362.43,232.90 L 362.32,232.84 L 362.20,232.78 L 362.08,232.72 L 361.96,232.66 L 361.83,232.60 L 361.71,232.55 L 361.58,232.50 L 361.46,232.45 L 361.33,232.40 L 361.20,232.35 L 361.07,232.31 L 360.94,232.27 L 360.80,232.23 L 360.67,232.19 L 360.54,232.15 L 360.40,232.12 L 360.26,232.09 L 360.12,232.06 L 359.99,232.04 L 359.85,232.01 L 359.71,231.99 L 359.56,231.97 L 359.42,231.96 L 359.28,231.94 L 359.14,231.93 L 358.99,231.92 L 358.85,231.92 L 358.70,231.91 L 358.56,231.91 L 358.41,231.91 L 358.26,231.91 L 358.12,231.92 L 357.97,231.93 L 357.82,231.94 L 357.68,231.96 L 357.53,231.97 L 357.38,231.99 L 357.23,232.01 L 357.08,232.04 L 356.93,232.06 L 356.79,232.09 L 356.64,232.13 L 356.49,232.16 L 356.34,232.20 L 356.19,232.24 L 356.05,232.28 L 355.90,232.33 L 355.75,232.38 L 355.61,232.43 L 355.46,232.49 L 355.32,232.54 L 355.17,232.60 L 355.03,232.67 L 354.88,232.73 L 354.74,232.80 L 354.60,232.87 L 354.46,232.94 L 354.32,233.02 L 354.18,233.10 L 354.04,233.18 L 353.90,233.26 L 353.77,233.35 L 353.63,233.44 L 353.50,233.53 L 353.36,233.62 L 353.23,233.72 L 353.10,233.82 L 352.97,233.92 L 352.84,234.03 L 352.72,234.14 L 352.59,234.25 L 352.47,234.36 L 352.35,234.47 L 352.23,234.59 L 352.11,234.71 L 352.00,234.83 L 351.88,234.96 L 351.77,235.09 L 351.66,235.22 L 351.55,235.35 L 351.44,235.48 L 351.34,235.62 L 351.23,235.76 L 351.13,235.90 L 351.04,236.04 L 350.94,236.19 L 350.84,236.33 L 350.75,236.48 L 350.66,236.63 L 350.58,236.79 L 350.49,236.94 L 350.41,237.10 L 350.33,237.26 L 350.25,237.42 L 350.18,237.59 L 350.11,237.75 L 350.04,237.92 L 349.97,238.08 L 349.91,238.25 L 349.85,238.43 L 349.79,238.60 L 349.73,238.77 L 349.68,238.95 L 349.63,239.13 L 349.59,239.31 L 349.54,239.49 L 349.50,239.67 L 349.47,239.85 L 349.43,240.04 L 349.40,240.22 L 349.37,240.41 L 349.35,240.60 L 349.33,240.78 L 349.31,240.97 L 349.29,241.16 L 349.28,241.36 L 349.27,241.55 L 349.27,241.74 L 349.27,241.93 L 349.27,242.13 L 349.27,242.32 L 349.28,242.52 L 349.29,242.71 L 349.31,242.91 L 349.33,243.10 L 349.35,243.30 L 349.38,243.50 L 349.41,243.69 L 349.44,243.89 L 349.48,244.09 L 349.52,244.28 L 349.56,244.48 L 349.61,244.68 L 349.66,244.87 L 349.71,245.07 L 349.77,245.26 L 349.83,245.46 L 349.90,245.65 L 349.97,245.85 L 350.04,246.04 L 350.11,246.23 L 350.19,246.43 L 350.28,246.62 L 350.36,246.81 L 350.45,247.00 L 350.55,247.19 L 350.65,247.37 L 350.75,247.56 L 350.85,247.74 L 350.96,247.93 L 351.07,248.11 L 351.19,248.29 L 351.31,248.47 L 351.43,248.65 L 351.55,248.82 L 351.68,249.00 L 351.82,249.17 L 351.95,249.34 L 352.09,249.51 L 352.24,249.68 L 352.38,249.84 L 352.53,250.01 L 352.68,250.17 L 352.84,250.32 L 353.00,250.48 L 353.16,250.64 L 353.33,250.79 L 353.50,250.94 L 353.67,251.08 L 353.85,251.23 L 354.02,251.37 L 354.20,251.51 L 354.39,251.64 L 354.58,251.78 L 354.77,251.91 L 354.96,252.03 L 355.16,252.16 L 355.35,252.28 L 355.56,252.40 L 355.76,252.51 L 355.97,252.63 L 356.18,252.73 L 356.39,252.84 L 356.60,252.94 L 356.82,253.04 L 357.04,253.13 L 357.26,253.23 L 357.48,253.31 L 357.71,253.40 L 357.94,253.48 L 358.17,253.55 L 358.40,253.63 L 358.63,253.70 L 358.87,253.76 L 359.11,253.82 L 359.34,253.88 L 359.59,253.93 L 359.83,253.98 L 360.07,254.03 L 360.32,254.07 L 360.57,254.10 L 360.82,254.14 L 361.07,254.16 L 361.32,254.19 L 361.57,254.21 L 361.82,254.22 L 362.08,254.23 L 362.33,254.24 L 362.59,254.24 L 362.85,254.24 L 363.11,254.23 L 363.37,254.22 L 363.62,254.20 L 363.88,254.18 L 364.14,254.16 L 364.40,254.13 L 364.67,254.09 L 364.93,254.05 L 365.19,254.01 L 365.45,253.96 L 365.71,253.90 L 365.97,253.85 L 366.23,253.78 L 366.49,253.72 L 366.75,253.64 L 367.01,253.56 L 367.27,253.48 L 367.53,253.40 L 367.78,253.30 L 368.04,253.21 L 368.30,253.11 L 368.55,253.00 L 368.80,252.89 L 369.06,252.77 L 369.31,252.65 L 369.56,252.53 L 369.81,252.40 L 370.05,252.26 L 370.30,252.12 L 370.54,251.98 L 370.78,251.83 L 371.02,251.68 L 371.26,251.52 L 371.50,251.36 L 371.73,251.19 L 371.96,251.02 L 372.19,250.84 L 372.42,250.66 L 372.64,250.47 L 372.86,250.28 L 373.08,250.09 L 373.30,249.89 L 373.51,249.69 L 373.72,249.48 L 373.93,249.27 L 374.13,249.05 L 374.33,248.83 L 374.53,248.60 L 374.72,248.38 L 374.91,248.14 L 375.10,247.91 L 375.29,247.66 L 375.47,247.42 L 375.64,247.17 L 375.82,246.92 L 375.98,246.66 L 376.15,246.40 L 376.31,246.14 L 376.47,245.87 L 376.62,245.60 L 376.77,245.32 L 376.91,245.05 L 377.05,244.77 L 377.18,244.48 L 377.31,244.19 L 377.44,243.90 L 377.56,243.61 L 377.67,243.31 L 377.79,243.01 L 377.89,242.71 L 377.99,242.40 L 378.09,242.10 L 378.18,241.78 L 378.27,241.47 L 378.35,241.16 L 378.42,240.84 L 378.49,240.52 L 378.56,240.19 L 378.61,239.87 L 378.67,239.54 L 378.72,239.21 L 378.76,238.88 L 378.80,238.55 L 378.83,238.22 L 378.85,237.88 L 378.87,237.55 L 378.88,237.21 L 378.89,236.87 L 378.89,236.53 L 378.89,236.19 L 378.88,235.84 L 378.86,235.50 L 378.84,235.16 L 378.81,234.81 L 378.78,234.47 L 378.74,234.12 L 378.69,233.78 L 378.64,233.43 L 378.58,233.08 L 378.51,232.74 L 378.44,232.39 L 378.36,232.04 L 378.28,231.70 L 378.19,231.35 L 378.09,231.01 L 377.99,230.66 L 377.88,230.32 L 377.76,229.98 L 377.64,229.64 L 377.51,229.30 L 377.37,228.96 L 377.23,228.62 L 377.09,228.28 L 376.93,227.95 L 376.77,227.62 L 376.60,227.29 L 376.43,226.96 L 376.25,226.63 L 376.07,226.30 L 375.87,225.98 L 375.68,225.66 L 375.47,225.34 L 375.26,225.03 L 375.04,224.72 L 374.82,224.41 L 374.59,224.10 L 374.36,223.80 L 374.12,223.50 L 373.87,223.20 L 373.62,222.91 L 373.36,222.62 L 373.09,222.33 L 372.82,222.05 L 372.55,221.77 L 372.27,221.50 L 371.98,221.22 L 371.68,220.96 L 371.39,220.70 L 371.08,220.44 L 370.77,220.19 L 370.46,219.94 L 370.14,219.69 L 369.81,219.46 L 369.48,219.22 L 369.14,218.99 L 368.80,218.77 L 368.46,218.55 L 368.11,218.34 L 367.75,218.13 L 367.39,217.93 L 367.03,217.74 L 366.66,217.55 L 366.29,217.36 L 365.91,217.18 L 365.53,217.01 L 365.14,216.85 L 364.75,216.69 L 364.35,216.53 L 363.96,216.39 L 363.55,216.25 L 363.15,216.11 L 362.74,215.99 L 362.33,215.87 L 361.91,215.75 L 361.49,215.65 L 361.07,215.55 L 360.64,215.46 L 360.22,215.37 L 359.78,215.29 L 359.35,215.22 L 358.91,215.16 L 358.48,215.11 L 358.03,215.06 L 357.59,215.02 L 357.15,214.99 L 356.70,214.96 L 356.25,214.94 L 355.80,214.93 L 355.35,214.93 L 354.90,214.94 L 354.44,214.95 L 353.99,214.98 L 353.53,215.01 L 353.07,215.04 L 352.61,215.09 L 352.15,215.15 L 351.70,215.21 L 351.24,215.28 L 350.78,215.36 L 350.32,215.45 L 349.86,215.54 L 349.40,215.65 L 348.94,215.76 L 348.48,215.88 L 348.02,216.01 L 347.57,216.15 L 347.11,216.30 L 346.66,216.45 L 346.21,216.61 L 345.75,216.79 L 345.31,216.97 L 344.86,217.15 L 344.41,217.35 L 343.97,217.56 L 343.53,217.77 L 343.09,217.99 L 342.65,218.22 L 342.22,218.46 L 341.79,218.71 L 341.36,218.96 L 340.93,219.23 L 340.51,219.50 L 340.10,219.78 L 339.68,220.07 L 339.27,220.36 L 338.87,220.67 L 338.46,220.98 L 338.07,221.30 L 337.67,221.63 L 337.28,221.97 L 336.90,222.31 L 336.52,222.66 L 336.15,223.02 L 335.78,223.39 L 335.41,223.76 L 335.05,224.15 L 334.70,224.54 L 334.35,224.93 L 334.01,225.34 L 333.68,225.75 L 333.35,226.17 L 333.03,226.59 L 332.71,227.03 L 332.40,227.47 L 332.10,227.91 L 331.81,228.36 L 331.52,228.82 L 331.24,229.29 L 330.96,229.76 L 330.70,230.24 L 330.44,230.72 L 330.19,231.21 L 329.94,231.71 L 329.71,232.21 L 329.48,232.72 L 329.26,233.23 L 329.05,233.75 L 328.85,234.28 L 328.65,234.80 L 328.47,235.34 L 328.29,235.88 L 328.12,236.42 L 327.97,236.97 L 327.82,237.52 L 327.68,238.08 L 327.55,238.64 L 327.43,239.20 L 327.31,239.77 L 327.21,240.34 L 327.12,240.92 L 327.04,241.50 L 326.97,242.08 L 326.90,242.67 L 326.85,243.25 L 326.81,243.84 L 326.78,244.44 L 326.75,245.03 L 326.74,245.63 L 326.74,246.23 L 326.75,246.83 L 326.77,247.44 L 326.80,248.04 L 326.84,248.65 L 326.90,249.25 L 326.96,249.86 L 327.03,250.47 L 327.12,251.08 L 327.21,251.69 L 327.32,252.30 L 327.44,252.91 L 327.57,253.52 L 327.71,254.13 L 327.86,254.74 L 328.02,255.34 L 328.19,255.95 L 328.38,256.55 L 328.57,257.16 L 328.78,257.76 L 329.00,258.36 L 329.22,258.96 L 329.46,259.56 L 329.72,260.15 L 329.98,260.74 L 330.25,261.33 L 330.54,261.91 L 330.83,262.50 L 331.14,263.08 L 331.46,263.65 L 331.79,264.22 L 332.13,264.79 L 332.48,265.35 L 332.84,265.91 L 333.21,266.46 L 333.59,267.01 L 333.99,267.56 L 334.39,268.09 L 334.81,268.63 L 335.24,269.15 L 335.67,269.68 L 336.12,270.19 L 336.58,270.70 L 337.05,271.20 L 337.52,271.70 L 338.01,272.19 L 338.51,272.67 L 339.02,273.14 L 339.54,273.61 L 340.06,274.07 L 340.60,274.52 L 341.15,274.97 L 341.70,275.40 L 342.27,275.83 L 342.84,276.25 L 343.43,276.66 L 344.02,277.06 L 344.62,277.45 L 345.23,277.83 L 345.85,278.20 L 346.48,278.56 L 347.11,278.92 L 347.76,279.26 L 348.41,279.59 L 349.07,279.91 L 349.74,280.22 L 350.41,280.52 L 351.09,280.81 L 351.78,281.09 L 352.48,281.36 L 353.18,281.61 L 353.89,281.86 L 354.60,282.09 L 355.32,282.31 L 356.05,282.52 L 356.78,282.72 L 357.52,282.90 L 358.27,283.07 L 359.02,283.23 L 359.77,283.38 L 360.53,283.51 L 361.30,283.64 L 362.07,283.74 L 362.84,283.84 L 363.61,283.92 L 364.40,283.99 L 365.18,284.04 L 365.97,284.08 L 366.76,284.11 L 367.55,284.13 L 368.35,284.13 L 369.15,284.11 L 369.95,284.08 L 370.75,284.04 L 371.55,283.98 L 372.36,283.91 L 373.16,283.83 L 373.97,283.73 L 374.78,283.62 L 375.59,283.49 L 376.40,283.34 L 377.21,283.19 L 378.02,283.01 L 378.82,282.83 L 379.63,282.63 L 380.44,282.41 L 381.24,282.18 L 382.04,281.93 L 382.85,281.67 L 383.64,281.40 L 384.44,281.11 L 385.23,280.80 L 386.02,280.48 L 386.81,280.15 L 387.60,279.80 L 388.38,279.43 L 389.15,279.05 L 389.92,278.66 L 390.69,278.25 L 391.45,277.83 L 392.21,277.39 L 392.96,276.94 L 393.71,276.47 L 394.45,275.99 L 395.18,275.49 L 395.91,274.98 L 396.63,274.46 L 397.35,273.92 L 398.05,273.37 L 398.75,272.80 L 399.44,272.22 L 400.12,271.62 L 400.80,271.01 L 401.47,270.39 L 402.12,269.76 L 402.77,269.11 L 403.41,268.45 L 404.04,267.77 L 404.66,267.08 L 405.26,266.38 L 405.86,265.67 L 406.45,264.94 L 407.03,264.20 L 407.59,263.45 L 408.14,262.68 L 408.69,261.91 L 409.22,261.12 L 409.73,260.32 L 410.24,259.51 L 410.73,258.69 L 411.21,257.86 L 411.68,257.01 L 412.13,256.16 L 412.57,255.29 L 413.00,254.42 L 413.41,253.53 L 413.80,252.63 L 414.19,251.73 L 414.56,250.81 L 414.91,249.89 L 415.25,248.96 L 415.57,248.02 L 415.88,247.07 L 416.17,246.11 L 416.44,245.14 L 416.70,244.17 L 416.94,243.19 L 417.17,242.20 L 417.38,241.20 L 417.57,240.20 L 417.75,239.19 L 417.91,238.18 L 418.05,237.16 L 418.17,236.13 L 418.28,235.10 L 418.37,234.06 L 418.44,233.02 L 418.49,231.98 L 418.53,230.93 L 418.54,229.88 L 418.54,228.82 L 418.52,227.76 L 418.48,226.70 L 418.43,225.63 L 418.35,224.57 L 418.25,223.50 L 418.14,222.43 L 418.00,221.35 L 417.85,220.28 L 417.68,219.21 L 417.49,218.14 L 417.28,217.06 L 417.05,215.99 L 416.80,214.92 L 416.53,213.85 L 416.24,212.78 L 415.93,211.71 L 415.60,210.65 L 415.25,209.58 L 414.89,208.52 L 414.50,207.47 L 414.09,206.42 L 413.67,205.37 L 413.22,204.32 L 412.75,203.28 L 412.27,202.25 L 411.76,201.22 L 411.24,200.19 L 410.69,199.18 L 410.13,198.17 L 409.55,197.16 L 408.95,196.17 L 408.32,195.18 L 407.68,194.20 L 407.02,193.22 L 406.34,192.26 L 405.65,191.30 L 404.93,190.36 L 404.19,189.42 L 403.44,188.49 L 402.67,187.58 L 401.88,186.67 L 401.07,185.78 L 400.24,184.90 L 399.40,184.03 L 398.53,183.17 L 397.65,182.32 L 396.75,181.49 L 395.84,180.67 L 394.91,179.86 L 393.96,179.07 L 392.99,178.30 L 392.01,177.53 L 391.01,176.78 L 389.99,176.05 L 388.96,175.33 L 387.92,174.63 L 386.85,173.95 L 385.78,173.28 L 384.68,172.63 L 383.58,171.99 L 382.46,171.37 L 381.32,170.78 L 380.17,170.19 L 379.01,169.63 L 377.83,169.09 L 376.64,168.56 L 375.44,168.06 L 374.23,167.57 L 373.00,167.10 L 371.76,166.66 L 370.51,166.23 L 369.25,165.83 L 367.98,165.44 L 366.69,165.08 L 365.40,164.74 L 364.10,164.42 L 362.79,164.12 L 361.46,163.84 L 360.13,163.59 L 358.79,163.36 L 357.45,163.15 L 356.09,162.96 L 354.73,162.80 L 353.36,162.66 L 351.99,162.55 L 350.61,162.45 L 349.22,162.39 L 347.83,162.34 L 346.43,162.32 L 345.03,162.33 L 343.62,162.36 L 342.21,162.41 L 340.80,162.49 L 339.38,162.60 L 337.96,162.73 L 336.54,162.88 L 335.12,163.06 L 333.70,163.27 L 332.27,163.50 L 330.85,163.75 L 329.43,164.04 L 328.00,164.34 L 326.58,164.68 L 325.16,165.04 L 323.74,165.42 L 322.33,165.84 L 320.91,166.27 L 319.50,166.74 L 318.10,167.23 L 316.70,167.75 L 315.30,168.29 L 313.91,168.86 L 312.53,169.45 L 311.15,170.07 L 309.77,170.72 L 308.41,171.39 L 307.05,172.09 L 305.70,172.81 L 304.36,173.56 L 303.03,174.34 L 301.71,175.14 L 300.40,175.97 L 299.10,176.82 L 297.81,177.70 L 296.53,178.60 L 295.26,179.53 L 294.01,180.49 L 292.77,181.46 L 291.54,182.47 L 290.33,183.49 L 289.13,184.55 L 287.94,185.62 L 286.78,186.72 L 285.62,187.84 L 284.49,188.99 L 283.37,190.16 L 282.26,191.36 L 281.18,192.57 L 280.11,193.81 L 279.06,195.07 L 278.03,196.36 L 277.02,197.66 L 276.03,198.99 L 275.06,200.34 L 274.11,201.71 L 273.18,203.10 L 272.27,204.51 L 271.39,205.94 L 270.53,207.39 L 269.69,208.87 L 268.87,210.35 L 268.08,211.86 L 267.31,213.39 L 266.56,214.93 L 265.85,216.50 L 265.15,218.08 L 264.48,219.67 L 263.84,221.29 L 263.22,222.92 L 262.63,224.56 L 262.07,226.22 L 261.54,227.90 L 261.03,229.59 L 260.55,231.29 L 260.10,233.01 L 259.68,234.74 L 259.29,236.48 L 258.92,238.23 L 258.59,240.00" stroke="#6b46c1" stroke-width="2.2" fill="none" stroke-linecap="round"/>

  <!-- origin -->
  <circle cx="360" cy="240" r="3.5" fill="#2d3748"/>
  <text x="342" y="258" fill="#2d3748" font-size="12" font-style="italic">r₀</text>

  <!-- annotation arrows at mid-spiral -->
  <circle cx="359.8" cy="215.3" r="3.5" fill="#2d3748"/>
  <line x1="359.8" y1="215.3" x2="314.4" y2="207.5"
        stroke="#2b6cb0" stroke-width="2" marker-end="url(#arrowC)"/>
  <line x1="359.8" y1="215.3" x2="359.4" y2="169.3"
        stroke="#dd6b20" stroke-width="2" marker-end="url(#arrowP)"/>
  <text x="318.4" y="201.5" fill="#2b6cb0" font-size="12" font-style="italic">angular ω</text>
  <text x="349.4" y="161.3" fill="#dd6b20" font-size="12" font-style="italic">radial dr/dθ</text>

  <!-- title + equation -->
  <text x="360.0" y="26" text-anchor="middle" fill="#2d3748" font-size="17" font-weight="bold">
    The PRISM log-spiral worldline
  </text>
  <text x="360.0" y="450" text-anchor="middle" fill="#2d3748" font-size="15">
    <tspan font-style="italic">r</tspan>(θ) = <tspan font-style="italic">r</tspan>₀ · exp(α · θ)
    <tspan dx="26" fill="#718096">where</tspan>
    <tspan dx="6" font-style="italic" fill="#6b46c1" font-weight="bold">α = ω / (dr/dθ)</tspan>
  </text>
  <text x="360.0" y="468" text-anchor="middle" fill="#718096" font-size="11" font-style="italic">
    (growth rate shown visually exaggerated; true α ≈ 1/137)
  </text>
</svg>