<svg xmlns="http://www.w3.org/2000/svg" viewBox="0 0 720 380" font-family="Georgia, 'Times New Roman', serif">
  <rect width="720" height="380" fill="#fafafa"/>
  <defs>
    <marker id="arrow2" viewBox="0 0 10 10" refX="9" refY="5" markerWidth="7" markerHeight="7" orient="auto">
      <path d="M0,0 L10,5 L0,10 z" fill="#2d3748"/>
    </marker>
  </defs>

  <!-- title -->
  <text x="360.0" y="28" text-anchor="middle" fill="#2d3748" font-size="17" font-weight="bold">
    The compactified χ axis (Kaluza–Klein style)
  </text>

  <!-- "cylinder" body: rectangle + end caps -->
  <ellipse cx="90" cy="215.0" rx="14" ry="65.0"
           fill="#edf2f7" stroke="#cbd5e0" stroke-width="1"/>
  <rect x="90" y="150" width="500" height="130"
        fill="#edf2f7" stroke="none"/>
  <line x1="90" y1="150" x2="590" y2="150"
        stroke="#cbd5e0" stroke-width="1"/>
  <line x1="90" y1="280" x2="590" y2="280"
        stroke="#cbd5e0" stroke-width="1"/>
  <ellipse cx="590" cy="215.0" rx="14" ry="65.0"
           fill="#fafafa" stroke="#cbd5e0" stroke-width="1"/>

  <!-- helical worldline -->
  <path d="M 90.0,215.0 L 92.1,203.3 L 94.2,192.0 L 96.3,181.7 L 98.4,172.6 L 100.5,165.1 L 102.6,159.6 L 104.6,156.3 L 106.7,155.2" stroke="#6b46c1" stroke-width="2" fill="none"/>
  <path d="M 138.1,273.9 L 140.2,274.8 L 142.3,273.4 L 144.4,269.7 L 146.5,264.0 L 148.6,256.3 L 150.7,247.0 L 152.8,236.5 L 154.9,225.2 L 156.9,213.4 L 159.0,201.7 L 161.1,190.6 L 163.2,180.4 L 165.3,171.5 L 167.4,164.3 L 169.5,159.1 L 171.6,156.0 L 173.7,155.2" stroke="#6b46c1" stroke-width="2" fill="none"/>
  <path d="M 205.1,274.1 L 207.2,274.7 L 209.2,273.0 L 211.3,269.1 L 213.4,263.1 L 215.5,255.2 L 217.6,245.7 L 219.7,235.0 L 221.8,223.6 L 223.9,211.9 L 226.0,200.2 L 228.1,189.2 L 230.2,179.1 L 232.3,170.4 L 234.4,163.5 L 236.4,158.5 L 238.5,155.8 L 240.6,155.3" stroke="#6b46c1" stroke-width="2" fill="none"/>
  <path d="M 272.0,274.3 L 274.1,274.6 L 276.2,272.6 L 278.3,268.4 L 280.4,262.1 L 282.5,254.0 L 284.6,244.3 L 286.7,233.6 L 288.7,222.1 L 290.8,210.3 L 292.9,198.7 L 295.0,187.7 L 297.1,177.8 L 299.2,169.4 L 301.3,162.7 L 303.4,158.0 L 305.5,155.6 L 307.6,155.4" stroke="#6b46c1" stroke-width="2" fill="none"/>
  <path d="M 339.0,274.5 L 341.0,274.5 L 343.1,272.2 L 345.2,267.7 L 347.3,261.1 L 349.4,252.8 L 351.5,243.0 L 353.6,232.1 L 355.7,220.5 L 357.8,208.7 L 359.9,197.2 L 362.0,186.4 L 364.1,176.6 L 366.2,168.4 L 368.2,162.0 L 370.3,157.6 L 372.4,155.4 L 374.5,155.6" stroke="#6b46c1" stroke-width="2" fill="none"/>
  <path d="M 405.9,274.6 L 408.0,274.3 L 410.1,271.7 L 412.2,266.9 L 414.3,260.1 L 416.4,251.5 L 418.5,241.6 L 420.5,230.5 L 422.6,218.9 L 424.7,207.2 L 426.8,195.7 L 428.9,185.0 L 431.0,175.4 L 433.1,167.4 L 435.2,161.2 L 437.3,157.2 L 439.4,155.3 L 441.5,155.8" stroke="#6b46c1" stroke-width="2" fill="none"/>
  <path d="M 472.8,274.7 L 474.9,274.1 L 477.0,271.2 L 479.1,266.1 L 481.2,259.1 L 483.3,250.3 L 485.4,240.1 L 487.5,229.0 L 489.6,217.4 L 491.7,205.6 L 493.8,194.2 L 495.9,183.6 L 497.9,174.3 L 500.0,166.5 L 502.1,160.6 L 504.2,156.8 L 506.3,155.2 L 508.4,156.0" stroke="#6b46c1" stroke-width="2" fill="none"/>
  <path d="M 539.8,274.8 L 541.9,273.9 L 544.0,270.7 L 546.1,265.3 L 548.2,258.0 L 550.3,249.0 L 552.3,238.7 L 554.4,227.5 L 556.5,215.8 L 558.6,204.1 L 560.7,192.8 L 562.8,182.3 L 564.9,173.1 L 567.0,165.6 L 569.1,159.9 L 571.2,156.4 L 573.3,155.2 L 575.4,156.3" stroke="#6b46c1" stroke-width="2" fill="none"/>

  <!-- 4D-axis label -->
  <line x1="80" y1="320" x2="600" y2="320"
        stroke="#2d3748" stroke-width="1.2" marker-end="url(#arrow2)"/>
  <text x="340.0" y="314" text-anchor="middle"
        fill="#718096" font-size="12" font-style="italic">
    one spatial axis of 4D spacetime
  </text>

  <!-- L_chi label (circumference of cap) -->
  <path d="M 570 144.0
           C 550 110.0,
             630 110.0,
             610 144.0"
        stroke="#dd6b20" stroke-width="1.4" fill="none" marker-end="url(#arrow2)"/>
  <text x="590" y="100.0" text-anchor="middle"
        fill="#dd6b20" font-size="13" font-weight="bold">
    L<tspan baseline-shift="sub" font-size="10">χ</tspan> = 2π / α
  </text>
  <text x="590" y="118.0" text-anchor="middle"
        fill="#718096" font-size="11" font-style="italic">
    (closure condition, P-5)
  </text>

  <!-- spiral legend -->
  <line x1="520" y1="310" x2="550" y2="310"
        stroke="#6b46c1" stroke-width="2"/>
  <text x="556" y="314" fill="#2d3748" font-size="12">
    electron worldline:
  </text>
  <text x="556" y="330" fill="#6b46c1" font-size="12" font-style="italic" font-weight="bold">
    log-spiral winding χ
  </text>
</svg>