<svg xmlns="http://www.w3.org/2000/svg" viewBox="0 0 760 460" font-family="Georgia, 'Times New Roman', serif">
  <rect width="760" height="460" fill="#fafafa"/>

  <!-- title -->
  <text x="380.0" y="28" text-anchor="middle" fill="#2d3748" font-size="17" font-weight="bold">
    Why the Bethe-log gate is about s-states
  </text>
  <text x="380.0" y="48" text-anchor="middle" fill="#718096" font-size="12" font-style="italic">
    Radial probability r² |R<tspan baseline-shift="sub" font-size="9">n,ℓ</tspan>(r)|² vs. the PRISM small-r coupling envelope
  </text>

  <!-- highlight strip: small-r spiral core region -->
  <rect x="70.0" y="70" width="65.0" height="310"
        fill="#dd6b20" fill-opacity="0.10"/>
  <text x="102.5" y="62" text-anchor="middle"
        fill="#dd6b20" font-size="11" font-style="italic" font-weight="bold">
    PRISM coupling region (small r)
  </text>

  <!-- plot box -->
  <line x1="70" y1="70" x2="70" y2="380" stroke="#2d3748" stroke-width="1"/>
  <line x1="70" y1="380" x2="720" y2="380" stroke="#2d3748" stroke-width="1"/>
  <line x1="70.0" y1="380" x2="70.0" y2="384" stroke="#2d3748" stroke-width="1"/>
<text x="70.0" y="398" text-anchor="middle" fill="#718096" font-size="11">0</text>
<line x1="135.0" y1="380" x2="135.0" y2="384" stroke="#2d3748" stroke-width="1"/>
<text x="135.0" y="398" text-anchor="middle" fill="#718096" font-size="11">a₀</text>
<line x1="200.0" y1="380" x2="200.0" y2="384" stroke="#2d3748" stroke-width="1"/>
<text x="200.0" y="398" text-anchor="middle" fill="#718096" font-size="11">2</text>
<line x1="330.0" y1="380" x2="330.0" y2="384" stroke="#2d3748" stroke-width="1"/>
<text x="330.0" y="398" text-anchor="middle" fill="#718096" font-size="11">4</text>
<line x1="460.0" y1="380" x2="460.0" y2="384" stroke="#2d3748" stroke-width="1"/>
<text x="460.0" y="398" text-anchor="middle" fill="#718096" font-size="11">6</text>
<line x1="590.0" y1="380" x2="590.0" y2="384" stroke="#2d3748" stroke-width="1"/>
<text x="590.0" y="398" text-anchor="middle" fill="#718096" font-size="11">8</text>
<line x1="720.0" y1="380" x2="720.0" y2="384" stroke="#2d3748" stroke-width="1"/>
<text x="720.0" y="398" text-anchor="middle" fill="#718096" font-size="11">10</text>


  <!-- coupling envelope (dashed) -->
  <path d="M 70.00,70.00 L 71.63,76.91 L 73.26,83.67 L 74.89,90.28 L 76.52,96.75 L 78.15,103.06 L 79.77,109.24 L 81.40,115.28 L 83.03,121.18 L 84.66,126.96 L 86.29,132.60 L 87.92,138.12 L 89.55,143.51 L 91.18,148.79 L 92.81,153.94 L 94.44,158.99 L 96.07,163.92 L 97.69,168.73 L 99.32,173.45 L 100.95,178.05 L 102.58,182.56 L 104.21,186.96 L 105.84,191.27 L 107.47,195.48 L 109.10,199.59 L 110.73,203.62 L 112.36,207.55 L 113.98,211.40 L 115.61,215.16 L 117.24,218.83 L 118.87,222.43 L 120.50,225.94 L 122.13,229.38 L 123.76,232.74 L 125.39,236.02 L 127.02,239.23 L 128.65,242.37 L 130.28,245.44 L 131.90,248.44 L 133.53,251.38 L 135.16,254.25 L 136.79,257.05 L 138.42,259.79 L 140.05,262.48 L 141.68,265.10 L 143.31,267.66 L 144.94,270.17 L 146.57,272.61 L 148.20,275.01 L 149.82,277.35 L 151.45,279.64 L 153.08,281.88 L 154.71,284.07 L 156.34,286.21 L 157.97,288.30 L 159.60,290.34 L 161.23,292.34 L 162.86,294.30 L 164.49,296.21 L 166.12,298.08 L 167.74,299.91 L 169.37,301.69 L 171.00,303.44 L 172.63,305.15 L 174.26,306.82 L 175.89,308.45 L 177.52,310.05 L 179.15,311.61 L 180.78,313.13 L 182.41,314.62 L 184.04,316.08 L 185.66,317.51 L 187.29,318.90 L 188.92,320.26 L 190.55,321.60 L 192.18,322.90 L 193.81,324.17 L 195.44,325.42 L 197.07,326.63 L 198.70,327.82 L 200.33,328.99 L 201.95,330.13 L 203.58,331.24 L 205.21,332.33 L 206.84,333.39 L 208.47,334.43 L 210.10,335.45 L 211.73,336.44 L 213.36,337.41 L 214.99,338.36 L 216.62,339.29 L 218.25,340.20 L 219.87,341.08 L 221.50,341.95 L 223.13,342.80 L 224.76,343.63 L 226.39,344.44 L 228.02,345.24 L 229.65,346.01 L 231.28,346.77 L 232.91,347.51 L 234.54,348.23 L 236.17,348.94 L 237.79,349.64 L 239.42,350.31 L 241.05,350.98 L 242.68,351.62 L 244.31,352.26 L 245.94,352.87 L 247.57,353.48 L 249.20,354.07 L 250.83,354.65 L 252.46,355.21 L 254.09,355.77 L 255.71,356.31 L 257.34,356.84 L 258.97,357.35 L 260.60,357.86 L 262.23,358.35 L 263.86,358.83 L 265.49,359.31 L 267.12,359.77 L 268.75,360.22 L 270.38,360.66 L 272.01,361.09 L 273.63,361.51 L 275.26,361.93 L 276.89,362.33 L 278.52,362.72 L 280.15,363.11 L 281.78,363.49 L 283.41,363.85 L 285.04,364.21 L 286.67,364.57 L 288.30,364.91 L 289.92,365.25 L 291.55,365.58 L 293.18,365.90 L 294.81,366.21 L 296.44,366.52 L 298.07,366.82 L 299.70,367.11 L 301.33,367.40 L 302.96,367.68 L 304.59,367.96 L 306.22,368.23 L 307.84,368.49 L 309.47,368.75 L 311.10,369.00 L 312.73,369.24 L 314.36,369.48 L 315.99,369.72 L 317.62,369.95 L 319.25,370.17 L 320.88,370.39 L 322.51,370.60 L 324.14,370.81 L 325.76,371.02 L 327.39,371.22 L 329.02,371.41 L 330.65,371.61 L 332.28,371.79 L 333.91,371.98 L 335.54,372.15 L 337.17,372.33 L 338.80,372.50 L 340.43,372.67 L 342.06,372.83 L 343.68,372.99 L 345.31,373.15 L 346.94,373.30 L 348.57,373.45 L 350.20,373.60 L 351.83,373.74 L 353.46,373.88 L 355.09,374.02 L 356.72,374.15 L 358.35,374.28 L 359.97,374.41 L 361.60,374.53 L 363.23,374.65 L 364.86,374.77 L 366.49,374.89 L 368.12,375.00 L 369.75,375.11 L 371.38,375.22 L 373.01,375.33 L 374.64,375.43 L 376.27,375.54 L 377.89,375.64 L 379.52,375.73 L 381.15,375.83 L 382.78,375.92 L 384.41,376.01 L 386.04,376.10 L 387.67,376.19 L 389.30,376.27 L 390.93,376.36 L 392.56,376.44 L 394.19,376.52 L 395.81,376.59 L 397.44,376.67 L 399.07,376.75 L 400.70,376.82 L 402.33,376.89 L 403.96,376.96 L 405.59,377.03 L 407.22,377.09 L 408.85,377.16 L 410.48,377.22 L 412.11,377.28 L 413.73,377.34 L 415.36,377.40 L 416.99,377.46 L 418.62,377.52 L 420.25,377.57 L 421.88,377.63 L 423.51,377.68 L 425.14,377.73 L 426.77,377.78 L 428.40,377.83 L 430.03,377.88 L 431.65,377.93 L 433.28,377.97 L 434.91,378.02 L 436.54,378.06 L 438.17,378.11 L 439.80,378.15 L 441.43,378.19 L 443.06,378.23 L 444.69,378.27 L 446.32,378.31 L 447.94,378.35 L 449.57,378.38 L 451.20,378.42 L 452.83,378.45 L 454.46,378.49 L 456.09,378.52 L 457.72,378.55 L 459.35,378.59 L 460.98,378.62 L 462.61,378.65 L 464.24,378.68 L 465.86,378.71 L 467.49,378.74 L 469.12,378.77 L 470.75,378.79 L 472.38,378.82 L 474.01,378.85 L 475.64,378.87 L 477.27,378.90 L 478.90,378.92 L 480.53,378.95 L 482.16,378.97 L 483.78,378.99 L 485.41,379.02 L 487.04,379.04 L 488.67,379.06 L 490.30,379.08 L 491.93,379.10 L 493.56,379.12 L 495.19,379.14 L 496.82,379.16 L 498.45,379.18 L 500.08,379.20 L 501.70,379.21 L 503.33,379.23 L 504.96,379.25 L 506.59,379.27 L 508.22,379.28 L 509.85,379.30 L 511.48,379.31 L 513.11,379.33 L 514.74,379.34 L 516.37,379.36 L 517.99,379.37 L 519.62,379.39 L 521.25,379.40 L 522.88,379.41 L 524.51,379.43 L 526.14,379.44 L 527.77,379.45 L 529.40,379.46 L 531.03,379.48 L 532.66,379.49 L 534.29,379.50 L 535.91,379.51 L 537.54,379.52 L 539.17,379.53 L 540.80,379.54 L 542.43,379.55 L 544.06,379.56 L 545.69,379.57 L 547.32,379.58 L 548.95,379.59 L 550.58,379.60 L 552.21,379.61 L 553.83,379.62 L 555.46,379.63 L 557.09,379.63 L 558.72,379.64 L 560.35,379.65 L 561.98,379.66 L 563.61,379.67 L 565.24,379.67 L 566.87,379.68 L 568.50,379.69 L 570.13,379.70 L 571.75,379.70 L 573.38,379.71 L 575.01,379.72 L 576.64,379.72 L 578.27,379.73 L 579.90,379.73 L 581.53,379.74 L 583.16,379.75 L 584.79,379.75 L 586.42,379.76 L 588.05,379.76 L 589.67,379.77 L 591.30,379.77 L 592.93,379.78 L 594.56,379.78 L 596.19,379.79 L 597.82,379.79 L 599.45,379.80 L 601.08,379.80 L 602.71,379.81 L 604.34,379.81 L 605.96,379.81 L 607.59,379.82 L 609.22,379.82 L 610.85,379.83 L 612.48,379.83 L 614.11,379.83 L 615.74,379.84 L 617.37,379.84 L 619.00,379.85 L 620.63,379.85 L 622.26,379.85 L 623.88,379.86 L 625.51,379.86 L 627.14,379.86 L 628.77,379.86 L 630.40,379.87 L 632.03,379.87 L 633.66,379.87 L 635.29,379.88 L 636.92,379.88 L 638.55,379.88 L 640.18,379.88 L 641.80,379.89 L 643.43,379.89 L 645.06,379.89 L 646.69,379.89 L 648.32,379.90 L 649.95,379.90 L 651.58,379.90 L 653.21,379.90 L 654.84,379.91 L 656.47,379.91 L 658.10,379.91 L 659.72,379.91 L 661.35,379.91 L 662.98,379.92 L 664.61,379.92 L 666.24,379.92 L 667.87,379.92 L 669.50,379.92 L 671.13,379.92 L 672.76,379.93 L 674.39,379.93 L 676.02,379.93 L 677.64,379.93 L 679.27,379.93 L 680.90,379.93 L 682.53,379.94 L 684.16,379.94 L 685.79,379.94 L 687.42,379.94 L 689.05,379.94 L 690.68,379.94 L 692.31,379.94 L 693.93,379.95 L 695.56,379.95 L 697.19,379.95 L 698.82,379.95 L 700.45,379.95 L 702.08,379.95 L 703.71,379.95 L 705.34,379.95 L 706.97,379.95 L 708.60,379.96 L 710.23,379.96 L 711.85,379.96 L 713.48,379.96 L 715.11,379.96 L 716.74,379.96 L 718.37,379.96 L 720.00,379.96" stroke="#dd6b20" stroke-width="1.7" fill="none" stroke-dasharray="6 3"/>

  <!-- curves -->
  <path d="M 70.00,380.00 L 71.63,378.63 L 73.26,374.79 L 74.89,368.86 L 76.52,361.16 L 78.15,352.00 L 79.77,341.66 L 81.40,330.36 L 83.03,318.34 L 84.66,305.77 L 86.29,292.84 L 87.92,279.69 L 89.55,266.46 L 91.18,253.27 L 92.81,240.20 L 94.44,227.37 L 96.07,214.83 L 97.69,202.65 L 99.32,190.89 L 100.95,179.60 L 102.58,168.80 L 104.21,158.54 L 105.84,148.83 L 107.47,139.69 L 109.10,131.13 L 110.73,123.16 L 112.36,115.79 L 113.98,109.00 L 115.61,102.80 L 117.24,97.19 L 118.87,92.14 L 120.50,87.66 L 122.13,83.73 L 123.76,80.32 L 125.39,77.44 L 127.02,75.05 L 128.65,73.15 L 130.28,71.71 L 131.90,70.72 L 133.53,70.16 L 135.16,70.00 L 136.79,70.23 L 138.42,70.83 L 140.05,71.77 L 141.68,73.05 L 143.31,74.63 L 144.94,76.51 L 146.57,78.66 L 148.20,81.07 L 149.82,83.71 L 151.45,86.58 L 153.08,89.65 L 154.71,92.91 L 156.34,96.34 L 157.97,99.93 L 159.60,103.67 L 161.23,107.53 L 162.86,111.52 L 164.49,115.61 L 166.12,119.79 L 167.74,124.05 L 169.37,128.38 L 171.00,132.77 L 172.63,137.21 L 174.26,141.69 L 175.89,146.20 L 177.52,150.74 L 179.15,155.29 L 180.78,159.85 L 182.41,164.41 L 184.04,168.96 L 185.66,173.50 L 187.29,178.03 L 188.92,182.53 L 190.55,187.00 L 192.18,191.44 L 193.81,195.85 L 195.44,200.21 L 197.07,204.53 L 198.70,208.80 L 200.33,213.02 L 201.95,217.19 L 203.58,221.30 L 205.21,225.36 L 206.84,229.35 L 208.47,233.29 L 210.10,237.16 L 211.73,240.96 L 213.36,244.70 L 214.99,248.38 L 216.62,251.98 L 218.25,255.52 L 219.87,258.99 L 221.50,262.39 L 223.13,265.72 L 224.76,268.98 L 226.39,272.18 L 228.02,275.30 L 229.65,278.36 L 231.28,281.34 L 232.91,284.26 L 234.54,287.11 L 236.17,289.89 L 237.79,292.61 L 239.42,295.26 L 241.05,297.85 L 242.68,300.37 L 244.31,302.83 L 245.94,305.22 L 247.57,307.55 L 249.20,309.82 L 250.83,312.04 L 252.46,314.19 L 254.09,316.28 L 255.71,318.32 L 257.34,320.30 L 258.97,322.23 L 260.60,324.10 L 262.23,325.92 L 263.86,327.69 L 265.49,329.41 L 267.12,331.08 L 268.75,332.70 L 270.38,334.27 L 272.01,335.79 L 273.63,337.27 L 275.26,338.71 L 276.89,340.10 L 278.52,341.45 L 280.15,342.76 L 281.78,344.03 L 283.41,345.26 L 285.04,346.45 L 286.67,347.61 L 288.30,348.73 L 289.92,349.81 L 291.55,350.86 L 293.18,351.88 L 294.81,352.86 L 296.44,353.81 L 298.07,354.73 L 299.70,355.62 L 301.33,356.48 L 302.96,357.32 L 304.59,358.12 L 306.22,358.90 L 307.84,359.66 L 309.47,360.39 L 311.10,361.09 L 312.73,361.77 L 314.36,362.43 L 315.99,363.06 L 317.62,363.68 L 319.25,364.27 L 320.88,364.84 L 322.51,365.40 L 324.14,365.93 L 325.76,366.45 L 327.39,366.94 L 329.02,367.43 L 330.65,367.89 L 332.28,368.34 L 333.91,368.77 L 335.54,369.19 L 337.17,369.59 L 338.80,369.98 L 340.43,370.35 L 342.06,370.71 L 343.68,371.06 L 345.31,371.39 L 346.94,371.72 L 348.57,372.03 L 350.20,372.33 L 351.83,372.62 L 353.46,372.90 L 355.09,373.17 L 356.72,373.43 L 358.35,373.68 L 359.97,373.92 L 361.60,374.15 L 363.23,374.38 L 364.86,374.59 L 366.49,374.80 L 368.12,375.00 L 369.75,375.19 L 371.38,375.38 L 373.01,375.55 L 374.64,375.73 L 376.27,375.89 L 377.89,376.05 L 379.52,376.20 L 381.15,376.35 L 382.78,376.49 L 384.41,376.63 L 386.04,376.76 L 387.67,376.89 L 389.30,377.01 L 390.93,377.13 L 392.56,377.24 L 394.19,377.35 L 395.81,377.45 L 397.44,377.55 L 399.07,377.65 L 400.70,377.74 L 402.33,377.83 L 403.96,377.92 L 405.59,378.00 L 407.22,378.08 L 408.85,378.15 L 410.48,378.23 L 412.11,378.30 L 413.73,378.37 L 415.36,378.43 L 416.99,378.49 L 418.62,378.55 L 420.25,378.61 L 421.88,378.67 L 423.51,378.72 L 425.14,378.77 L 426.77,378.82 L 428.40,378.87 L 430.03,378.91 L 431.65,378.96 L 433.28,379.00 L 434.91,379.04 L 436.54,379.08 L 438.17,379.12 L 439.80,379.15 L 441.43,379.19 L 443.06,379.22 L 444.69,379.25 L 446.32,379.28 L 447.94,379.31 L 449.57,379.34 L 451.20,379.37 L 452.83,379.39 L 454.46,379.42 L 456.09,379.44 L 457.72,379.46 L 459.35,379.48 L 460.98,379.51 L 462.61,379.53 L 464.24,379.55 L 465.86,379.56 L 467.49,379.58 L 469.12,379.60 L 470.75,379.62 L 472.38,379.63 L 474.01,379.65 L 475.64,379.66 L 477.27,379.68 L 478.90,379.69 L 480.53,379.70 L 482.16,379.71 L 483.78,379.73 L 485.41,379.74 L 487.04,379.75 L 488.67,379.76 L 490.30,379.77 L 491.93,379.78 L 493.56,379.79 L 495.19,379.80 L 496.82,379.80 L 498.45,379.81 L 500.08,379.82 L 501.70,379.83 L 503.33,379.84 L 504.96,379.84 L 506.59,379.85 L 508.22,379.85 L 509.85,379.86 L 511.48,379.87 L 513.11,379.87 L 514.74,379.88 L 516.37,379.88 L 517.99,379.89 L 519.62,379.89 L 521.25,379.90 L 522.88,379.90 L 524.51,379.91 L 526.14,379.91 L 527.77,379.91 L 529.40,379.92 L 531.03,379.92 L 532.66,379.92 L 534.29,379.93 L 535.91,379.93 L 537.54,379.93 L 539.17,379.94 L 540.80,379.94 L 542.43,379.94 L 544.06,379.94 L 545.69,379.95 L 547.32,379.95 L 548.95,379.95 L 550.58,379.95 L 552.21,379.95 L 553.83,379.96 L 555.46,379.96 L 557.09,379.96 L 558.72,379.96 L 560.35,379.96 L 561.98,379.97 L 563.61,379.97 L 565.24,379.97 L 566.87,379.97 L 568.50,379.97 L 570.13,379.97 L 571.75,379.97 L 573.38,379.97 L 575.01,379.98 L 576.64,379.98 L 578.27,379.98 L 579.90,379.98 L 581.53,379.98 L 583.16,379.98 L 584.79,379.98 L 586.42,379.98 L 588.05,379.98 L 589.67,379.98 L 591.30,379.98 L 592.93,379.98 L 594.56,379.99 L 596.19,379.99 L 597.82,379.99 L 599.45,379.99 L 601.08,379.99 L 602.71,379.99 L 604.34,379.99 L 605.96,379.99 L 607.59,379.99 L 609.22,379.99 L 610.85,379.99 L 612.48,379.99 L 614.11,379.99 L 615.74,379.99 L 617.37,379.99 L 619.00,379.99 L 620.63,379.99 L 622.26,379.99 L 623.88,379.99 L 625.51,379.99 L 627.14,379.99 L 628.77,379.99 L 630.40,379.99 L 632.03,379.99 L 633.66,379.99 L 635.29,380.00 L 636.92,380.00 L 638.55,380.00 L 640.18,380.00 L 641.80,380.00 L 643.43,380.00 L 645.06,380.00 L 646.69,380.00 L 648.32,380.00 L 649.95,380.00 L 651.58,380.00 L 653.21,380.00 L 654.84,380.00 L 656.47,380.00 L 658.10,380.00 L 659.72,380.00 L 661.35,380.00 L 662.98,380.00 L 664.61,380.00 L 666.24,380.00 L 667.87,380.00 L 669.50,380.00 L 671.13,380.00 L 672.76,380.00 L 674.39,380.00 L 676.02,380.00 L 677.64,380.00 L 679.27,380.00 L 680.90,380.00 L 682.53,380.00 L 684.16,380.00 L 685.79,380.00 L 687.42,380.00 L 689.05,380.00 L 690.68,380.00 L 692.31,380.00 L 693.93,380.00 L 695.56,380.00 L 697.19,380.00 L 698.82,380.00 L 700.45,380.00 L 702.08,380.00 L 703.71,380.00 L 705.34,380.00 L 706.97,380.00 L 708.60,380.00 L 710.23,380.00 L 711.85,380.00 L 713.48,380.00 L 715.11,380.00 L 716.74,380.00 L 718.37,380.00 L 720.00,380.00" stroke="#6b46c1" stroke-width="2.4" fill="none"/>
  <path d="M 70.00,380.00 L 71.63,380.00 L 73.26,380.00 L 74.89,380.00 L 76.52,379.99 L 78.15,379.99 L 79.77,379.97 L 81.40,379.95 L 83.03,379.91 L 84.66,379.86 L 86.29,379.80 L 87.92,379.71 L 89.55,379.60 L 91.18,379.46 L 92.81,379.29 L 94.44,379.09 L 96.07,378.86 L 97.69,378.58 L 99.32,378.26 L 100.95,377.89 L 102.58,377.47 L 104.21,377.00 L 105.84,376.48 L 107.47,375.90 L 109.10,375.26 L 110.73,374.55 L 112.36,373.79 L 113.98,372.95 L 115.61,372.05 L 117.24,371.08 L 118.87,370.04 L 120.50,368.92 L 122.13,367.73 L 123.76,366.47 L 125.39,365.13 L 127.02,363.72 L 128.65,362.23 L 130.28,360.66 L 131.90,359.01 L 133.53,357.29 L 135.16,355.49 L 136.79,353.62 L 138.42,351.67 L 140.05,349.64 L 141.68,347.54 L 143.31,345.37 L 144.94,343.12 L 146.57,340.81 L 148.20,338.42 L 149.82,335.96 L 151.45,333.43 L 153.08,330.84 L 154.71,328.19 L 156.34,325.47 L 157.97,322.69 L 159.60,319.85 L 161.23,316.96 L 162.86,314.01 L 164.49,311.00 L 166.12,307.95 L 167.74,304.85 L 169.37,301.70 L 171.00,298.50 L 172.63,295.27 L 174.26,291.99 L 175.89,288.68 L 177.52,285.33 L 179.15,281.95 L 180.78,278.54 L 182.41,275.10 L 184.04,271.64 L 185.66,268.15 L 187.29,264.64 L 188.92,261.11 L 190.55,257.57 L 192.18,254.02 L 193.81,250.45 L 195.44,246.87 L 197.07,243.29 L 198.70,239.71 L 200.33,236.12 L 201.95,232.53 L 203.58,228.95 L 205.21,225.37 L 206.84,221.79 L 208.47,218.23 L 210.10,214.68 L 211.73,211.14 L 213.36,207.61 L 214.99,204.11 L 216.62,200.62 L 218.25,197.16 L 219.87,193.71 L 221.50,190.29 L 223.13,186.90 L 224.76,183.54 L 226.39,180.21 L 228.02,176.91 L 229.65,173.64 L 231.28,170.40 L 232.91,167.21 L 234.54,164.05 L 236.17,160.93 L 237.79,157.85 L 239.42,154.81 L 241.05,151.81 L 242.68,148.86 L 244.31,145.96 L 245.94,143.09 L 247.57,140.28 L 249.20,137.52 L 250.83,134.80 L 252.46,132.14 L 254.09,129.52 L 255.71,126.96 L 257.34,124.45 L 258.97,121.99 L 260.60,119.59 L 262.23,117.24 L 263.86,114.94 L 265.49,112.71 L 267.12,110.52 L 268.75,108.40 L 270.38,106.33 L 272.01,104.31 L 273.63,102.36 L 275.26,100.46 L 276.89,98.62 L 278.52,96.84 L 280.15,95.12 L 281.78,93.46 L 283.41,91.85 L 285.04,90.30 L 286.67,88.81 L 288.30,87.38 L 289.92,86.01 L 291.55,84.70 L 293.18,83.44 L 294.81,82.25 L 296.44,81.11 L 298.07,80.02 L 299.70,79.00 L 301.33,78.03 L 302.96,77.12 L 304.59,76.27 L 306.22,75.48 L 307.84,74.73 L 309.47,74.05 L 311.10,73.42 L 312.73,72.85 L 314.36,72.32 L 315.99,71.86 L 317.62,71.44 L 319.25,71.08 L 320.88,70.78 L 322.51,70.52 L 324.14,70.32 L 325.76,70.16 L 327.39,70.06 L 329.02,70.00 L 330.65,70.00 L 332.28,70.04 L 333.91,70.13 L 335.54,70.27 L 337.17,70.46 L 338.80,70.69 L 340.43,70.97 L 342.06,71.29 L 343.68,71.65 L 345.31,72.06 L 346.94,72.51 L 348.57,73.00 L 350.20,73.54 L 351.83,74.11 L 353.46,74.72 L 355.09,75.38 L 356.72,76.07 L 358.35,76.79 L 359.97,77.56 L 361.60,78.36 L 363.23,79.20 L 364.86,80.07 L 366.49,80.98 L 368.12,81.91 L 369.75,82.89 L 371.38,83.89 L 373.01,84.92 L 374.64,85.99 L 376.27,87.08 L 377.89,88.21 L 379.52,89.36 L 381.15,90.54 L 382.78,91.74 L 384.41,92.97 L 386.04,94.23 L 387.67,95.51 L 389.30,96.82 L 390.93,98.15 L 392.56,99.50 L 394.19,100.88 L 395.81,102.27 L 397.44,103.69 L 399.07,105.13 L 400.70,106.58 L 402.33,108.05 L 403.96,109.55 L 405.59,111.06 L 407.22,112.58 L 408.85,114.13 L 410.48,115.68 L 412.11,117.26 L 413.73,118.85 L 415.36,120.45 L 416.99,122.06 L 418.62,123.69 L 420.25,125.33 L 421.88,126.98 L 423.51,128.64 L 425.14,130.31 L 426.77,131.99 L 428.40,133.68 L 430.03,135.38 L 431.65,137.09 L 433.28,138.80 L 434.91,140.52 L 436.54,142.25 L 438.17,143.99 L 439.80,145.73 L 441.43,147.47 L 443.06,149.23 L 444.69,150.98 L 446.32,152.74 L 447.94,154.50 L 449.57,156.27 L 451.20,158.03 L 452.83,159.80 L 454.46,161.58 L 456.09,163.35 L 457.72,165.12 L 459.35,166.90 L 460.98,168.67 L 462.61,170.44 L 464.24,172.22 L 465.86,173.99 L 467.49,175.76 L 469.12,177.53 L 470.75,179.30 L 472.38,181.06 L 474.01,182.83 L 475.64,184.59 L 477.27,186.34 L 478.90,188.10 L 480.53,189.85 L 482.16,191.59 L 483.78,193.33 L 485.41,195.07 L 487.04,196.80 L 488.67,198.53 L 490.30,200.25 L 491.93,201.96 L 493.56,203.67 L 495.19,205.38 L 496.82,207.07 L 498.45,208.76 L 500.08,210.45 L 501.70,212.13 L 503.33,213.80 L 504.96,215.46 L 506.59,217.11 L 508.22,218.76 L 509.85,220.40 L 511.48,222.03 L 513.11,223.65 L 514.74,225.27 L 516.37,226.88 L 517.99,228.47 L 519.62,230.06 L 521.25,231.64 L 522.88,233.22 L 524.51,234.78 L 526.14,236.33 L 527.77,237.87 L 529.40,239.41 L 531.03,240.93 L 532.66,242.45 L 534.29,243.95 L 535.91,245.45 L 537.54,246.93 L 539.17,248.41 L 540.80,249.87 L 542.43,251.33 L 544.06,252.77 L 545.69,254.21 L 547.32,255.63 L 548.95,257.05 L 550.58,258.45 L 552.21,259.84 L 553.83,261.23 L 555.46,262.60 L 557.09,263.96 L 558.72,265.31 L 560.35,266.65 L 561.98,267.98 L 563.61,269.30 L 565.24,270.60 L 566.87,271.90 L 568.50,273.19 L 570.13,274.46 L 571.75,275.73 L 573.38,276.98 L 575.01,278.22 L 576.64,279.46 L 578.27,280.68 L 579.90,281.89 L 581.53,283.09 L 583.16,284.28 L 584.79,285.46 L 586.42,286.62 L 588.05,287.78 L 589.67,288.93 L 591.30,290.06 L 592.93,291.19 L 594.56,292.30 L 596.19,293.40 L 597.82,294.49 L 599.45,295.58 L 601.08,296.65 L 602.71,297.71 L 604.34,298.76 L 605.96,299.80 L 607.59,300.83 L 609.22,301.85 L 610.85,302.86 L 612.48,303.86 L 614.11,304.85 L 615.74,305.82 L 617.37,306.79 L 619.00,307.75 L 620.63,308.70 L 622.26,309.64 L 623.88,310.57 L 625.51,311.48 L 627.14,312.39 L 628.77,313.29 L 630.40,314.18 L 632.03,315.06 L 633.66,315.93 L 635.29,316.79 L 636.92,317.64 L 638.55,318.48 L 640.18,319.31 L 641.80,320.14 L 643.43,320.95 L 645.06,321.76 L 646.69,322.55 L 648.32,323.34 L 649.95,324.11 L 651.58,324.88 L 653.21,325.64 L 654.84,326.39 L 656.47,327.13 L 658.10,327.87 L 659.72,328.59 L 661.35,329.31 L 662.98,330.02 L 664.61,330.71 L 666.24,331.41 L 667.87,332.09 L 669.50,332.76 L 671.13,333.43 L 672.76,334.09 L 674.39,334.74 L 676.02,335.38 L 677.64,336.02 L 679.27,336.64 L 680.90,337.26 L 682.53,337.87 L 684.16,338.48 L 685.79,339.07 L 687.42,339.66 L 689.05,340.24 L 690.68,340.82 L 692.31,341.38 L 693.93,341.94 L 695.56,342.50 L 697.19,343.04 L 698.82,343.58 L 700.45,344.11 L 702.08,344.64 L 703.71,345.16 L 705.34,345.67 L 706.97,346.17 L 708.60,346.67 L 710.23,347.16 L 711.85,347.65 L 713.48,348.13 L 715.11,348.60 L 716.74,349.07 L 718.37,349.53 L 720.00,349.98" stroke="#2b6cb0"   stroke-width="2.2" fill="none"/>
  <path d="M 70.00,380.00 L 71.63,380.00 L 73.26,380.00 L 74.89,380.00 L 76.52,380.00 L 78.15,380.00 L 79.77,380.00 L 81.40,380.00 L 83.03,380.00 L 84.66,380.00 L 86.29,380.00 L 87.92,380.00 L 89.55,380.00 L 91.18,380.00 L 92.81,380.00 L 94.44,380.00 L 96.07,380.00 L 97.69,380.00 L 99.32,380.00 L 100.95,380.00 L 102.58,380.00 L 104.21,380.00 L 105.84,380.00 L 107.47,379.99 L 109.10,379.99 L 110.73,379.99 L 112.36,379.99 L 113.98,379.99 L 115.61,379.98 L 117.24,379.98 L 118.87,379.97 L 120.50,379.97 L 122.13,379.96 L 123.76,379.96 L 125.39,379.95 L 127.02,379.94 L 128.65,379.93 L 130.28,379.92 L 131.90,379.91 L 133.53,379.89 L 135.16,379.88 L 136.79,379.86 L 138.42,379.84 L 140.05,379.82 L 141.68,379.80 L 143.31,379.77 L 144.94,379.74 L 146.57,379.71 L 148.20,379.68 L 149.82,379.64 L 151.45,379.60 L 153.08,379.56 L 154.71,379.52 L 156.34,379.47 L 157.97,379.41 L 159.60,379.36 L 161.23,379.29 L 162.86,379.23 L 164.49,379.16 L 166.12,379.08 L 167.74,379.00 L 169.37,378.92 L 171.00,378.82 L 172.63,378.73 L 174.26,378.62 L 175.89,378.52 L 177.52,378.40 L 179.15,378.28 L 180.78,378.15 L 182.41,378.01 L 184.04,377.87 L 185.66,377.72 L 187.29,377.56 L 188.92,377.39 L 190.55,377.22 L 192.18,377.04 L 193.81,376.84 L 195.44,376.64 L 197.07,376.43 L 198.70,376.21 L 200.33,375.98 L 201.95,375.74 L 203.58,375.49 L 205.21,375.24 L 206.84,374.97 L 208.47,374.68 L 210.10,374.39 L 211.73,374.09 L 213.36,373.77 L 214.99,373.45 L 216.62,373.11 L 218.25,372.76 L 219.87,372.40 L 221.50,372.02 L 223.13,371.63 L 224.76,371.23 L 226.39,370.82 L 228.02,370.39 L 229.65,369.95 L 231.28,369.50 L 232.91,369.03 L 234.54,368.55 L 236.17,368.05 L 237.79,367.54 L 239.42,367.02 L 241.05,366.48 L 242.68,365.92 L 244.31,365.35 L 245.94,364.77 L 247.57,364.17 L 249.20,363.56 L 250.83,362.93 L 252.46,362.28 L 254.09,361.62 L 255.71,360.94 L 257.34,360.25 L 258.97,359.54 L 260.60,358.82 L 262.23,358.08 L 263.86,357.32 L 265.49,356.55 L 267.12,355.76 L 268.75,354.96 L 270.38,354.13 L 272.01,353.30 L 273.63,352.44 L 275.26,351.57 L 276.89,350.68 L 278.52,349.78 L 280.15,348.86 L 281.78,347.92 L 283.41,346.97 L 285.04,346.00 L 286.67,345.02 L 288.30,344.02 L 289.92,343.00 L 291.55,341.96 L 293.18,340.91 L 294.81,339.85 L 296.44,338.76 L 298.07,337.66 L 299.70,336.55 L 301.33,335.42 L 302.96,334.27 L 304.59,333.11 L 306.22,331.93 L 307.84,330.74 L 309.47,329.53 L 311.10,328.30 L 312.73,327.06 L 314.36,325.81 L 315.99,324.54 L 317.62,323.25 L 319.25,321.96 L 320.88,320.64 L 322.51,319.31 L 324.14,317.97 L 325.76,316.62 L 327.39,315.25 L 329.02,313.86 L 330.65,312.46 L 332.28,311.05 L 333.91,309.63 L 335.54,308.19 L 337.17,306.74 L 338.80,305.28 L 340.43,303.81 L 342.06,302.32 L 343.68,300.82 L 345.31,299.31 L 346.94,297.79 L 348.57,296.25 L 350.20,294.71 L 351.83,293.15 L 353.46,291.59 L 355.09,290.01 L 356.72,288.42 L 358.35,286.83 L 359.97,285.22 L 361.60,283.60 L 363.23,281.98 L 364.86,280.34 L 366.49,278.70 L 368.12,277.05 L 369.75,275.39 L 371.38,273.72 L 373.01,272.05 L 374.64,270.37 L 376.27,268.68 L 377.89,266.98 L 379.52,265.28 L 381.15,263.57 L 382.78,261.85 L 384.41,260.13 L 386.04,258.41 L 387.67,256.68 L 389.30,254.94 L 390.93,253.20 L 392.56,251.45 L 394.19,249.70 L 395.81,247.95 L 397.44,246.19 L 399.07,244.43 L 400.70,242.67 L 402.33,240.90 L 403.96,239.14 L 405.59,237.37 L 407.22,235.59 L 408.85,233.82 L 410.48,232.04 L 412.11,230.27 L 413.73,228.49 L 415.36,226.72 L 416.99,224.94 L 418.62,223.16 L 420.25,221.38 L 421.88,219.61 L 423.51,217.83 L 425.14,216.06 L 426.77,214.29 L 428.40,212.52 L 430.03,210.75 L 431.65,208.98 L 433.28,207.22 L 434.91,205.46 L 436.54,203.70 L 438.17,201.95 L 439.80,200.20 L 441.43,198.45 L 443.06,196.71 L 444.69,194.97 L 446.32,193.24 L 447.94,191.51 L 449.57,189.79 L 451.20,188.07 L 452.83,186.36 L 454.46,184.66 L 456.09,182.96 L 457.72,181.26 L 459.35,179.58 L 460.98,177.90 L 462.61,176.23 L 464.24,174.56 L 465.86,172.90 L 467.49,171.25 L 469.12,169.61 L 470.75,167.98 L 472.38,166.36 L 474.01,164.74 L 475.64,163.13 L 477.27,161.54 L 478.90,159.95 L 480.53,158.37 L 482.16,156.80 L 483.78,155.24 L 485.41,153.69 L 487.04,152.15 L 488.67,150.63 L 490.30,149.11 L 491.93,147.60 L 493.56,146.11 L 495.19,144.62 L 496.82,143.15 L 498.45,141.69 L 500.08,140.24 L 501.70,138.80 L 503.33,137.38 L 504.96,135.97 L 506.59,134.57 L 508.22,133.18 L 509.85,131.80 L 511.48,130.44 L 513.11,129.09 L 514.74,127.76 L 516.37,126.43 L 517.99,125.12 L 519.62,123.83 L 521.25,122.55 L 522.88,121.28 L 524.51,120.03 L 526.14,118.79 L 527.77,117.56 L 529.40,116.35 L 531.03,115.15 L 532.66,113.97 L 534.29,112.80 L 535.91,111.65 L 537.54,110.51 L 539.17,109.38 L 540.80,108.28 L 542.43,107.18 L 544.06,106.10 L 545.69,105.04 L 547.32,103.99 L 548.95,102.96 L 550.58,101.94 L 552.21,100.94 L 553.83,99.95 L 555.46,98.98 L 557.09,98.03 L 558.72,97.09 L 560.35,96.17 L 561.98,95.26 L 563.61,94.37 L 565.24,93.49 L 566.87,92.63 L 568.50,91.79 L 570.13,90.96 L 571.75,90.15 L 573.38,89.35 L 575.01,88.57 L 576.64,87.81 L 578.27,87.06 L 579.90,86.33 L 581.53,85.62 L 583.16,84.92 L 584.79,84.24 L 586.42,83.57 L 588.05,82.92 L 589.67,82.29 L 591.30,81.67 L 592.93,81.07 L 594.56,80.49 L 596.19,79.92 L 597.82,79.37 L 599.45,78.83 L 601.08,78.31 L 602.71,77.81 L 604.34,77.32 L 605.96,76.85 L 607.59,76.39 L 609.22,75.95 L 610.85,75.53 L 612.48,75.12 L 614.11,74.73 L 615.74,74.36 L 617.37,74.00 L 619.00,73.65 L 620.63,73.32 L 622.26,73.01 L 623.88,72.72 L 625.51,72.44 L 627.14,72.17 L 628.77,71.92 L 630.40,71.69 L 632.03,71.47 L 633.66,71.27 L 635.29,71.08 L 636.92,70.91 L 638.55,70.75 L 640.18,70.61 L 641.80,70.48 L 643.43,70.37 L 645.06,70.27 L 646.69,70.19 L 648.32,70.12 L 649.95,70.07 L 651.58,70.03 L 653.21,70.01 L 654.84,70.00 L 656.47,70.01 L 658.10,70.03 L 659.72,70.06 L 661.35,70.11 L 662.98,70.17 L 664.61,70.25 L 666.24,70.34 L 667.87,70.44 L 669.50,70.56 L 671.13,70.69 L 672.76,70.84 L 674.39,71.00 L 676.02,71.17 L 677.64,71.36 L 679.27,71.55 L 680.90,71.77 L 682.53,71.99 L 684.16,72.23 L 685.79,72.48 L 687.42,72.74 L 689.05,73.02 L 690.68,73.31 L 692.31,73.61 L 693.93,73.92 L 695.56,74.25 L 697.19,74.58 L 698.82,74.93 L 700.45,75.29 L 702.08,75.67 L 703.71,76.05 L 705.34,76.45 L 706.97,76.85 L 708.60,77.27 L 710.23,77.70 L 711.85,78.14 L 713.48,78.60 L 715.11,79.06 L 716.74,79.53 L 718.37,80.02 L 720.00,80.51" stroke="#2f855a"  stroke-width="2.0" fill="none"/>

  <!-- axis labels -->
  <text x="395.0" y="420" text-anchor="middle"
        fill="#2d3748" font-size="13" font-style="italic">
    r  (units of Bohr radius a₀)
  </text>
  <text x="28" y="225.0" text-anchor="middle"
        fill="#2d3748" font-size="13" font-style="italic"
        transform="rotate(-90,28,225.0)">
    radial probability (normalized)
  </text>

  <!-- legend -->
  <g transform="translate(520,90)">
    <line x1="0" y1="0" x2="22" y2="0" stroke="#6b46c1" stroke-width="2.4"/>
    <text x="28" y="4" fill="#2d3748" font-size="12">
      |R<tspan baseline-shift="sub" font-size="9">1s</tspan>|² · r²   (ℓ = 0)
    </text>
    <line x1="0" y1="22" x2="22" y2="22" stroke="#2b6cb0" stroke-width="2.2"/>
    <text x="28" y="26" fill="#2d3748" font-size="12">
      |R<tspan baseline-shift="sub" font-size="9">2p</tspan>|² · r²   (ℓ = 1)
    </text>
    <line x1="0" y1="44" x2="22" y2="44" stroke="#2f855a" stroke-width="2.0"/>
    <text x="28" y="48" fill="#2d3748" font-size="12">
      |R<tspan baseline-shift="sub" font-size="9">3d</tspan>|² · r²   (ℓ = 2)
    </text>
    <line x1="0" y1="66" x2="22" y2="66" stroke="#dd6b20" stroke-width="1.7" stroke-dasharray="6 3"/>
    <text x="28" y="70" fill="#2d3748" font-size="12">
      coupling envelope
    </text>
  </g>

  <!-- caption -->
  <text x="380.0" y="440" text-anchor="middle" fill="#2d3748" font-size="12" font-style="italic">
    ℓ = 0 states overlap the small-r coupling region; the centrifugal barrier excludes ℓ ≥ 1.
  </text>
</svg>